<svg id="Layer_1" data-name="Layer 1" xmlns="http://www.w3.org/2000/svg" viewBox="0 0 890.78 344.26"><defs><style>.cls-1{fill:#ff0;}.cls-2{fill:#0071bc;}</style></defs><title>pyslackers_official</title><path class="cls-1" d="M1490.39,894c-27.37,17.43-54.33,32.29-86.12,35.34-3.75.36-7.52.77-11.28.77-77.52,0-155,.12-232.55-.24-25.7-.12-50.68-4.34-73.32-17.76-11.79-7-26.33-18.92-32.51-27.36h7c108.26,0,216.52.12,324.78-.27a108.55,108.55,0,0,0,33.26-5.29c18.7-6.2,36-4.24,53,4.55C1478.42,886.78,1484,890.31,1490.39,894Z" transform="translate(-1054.61 -827.87)"/><path class="cls-1" d="M1490,971.3c-13.13,9-26.29,16.67-41.63,18.15a65.42,65.42,0,0,1-24.44-2.45,146.09,146.09,0,0,0-42.83-6.32q-63.09.21-126.18-.18c-20.2-.16-40.3-1.8-59.61-8.61-20.72-7.31-37.75-20-53.63-36.75h7.12c79.22,0,158.44.23,237.66-.12C1425.15,934.84,1458.07,950.16,1490,971.3Z" transform="translate(-1054.61 -827.87)"/><path class="cls-1" d="M1507.25,1030.06c21.53-14,43.46-27.87,65-42.31a98.56,98.56,0,0,0,16.94-14.89c22.69-24.39,22.1-58-1.29-81.8-14.41-14.65-31.87-25.25-49.15-36-10.66-6.63-21.65-12.72-32.59-19.11,36.91-15.34,87.69-9.11,120.51,29.72A103.87,103.87,0,0,1,1630.43,995,105.47,105.47,0,0,1,1507.25,1030.06Z" transform="translate(-1054.61 -827.87)"/><path class="cls-2" d="M1945.39,885c-24.43,26.89-53.76,41.69-88.9,43.7-22.58,1.3-45.24,1.34-67.87,1.45-41.51.21-83,.05-124.53,0h-4.23L1649.07,885Z" transform="translate(-1054.61 -827.87)"/><path class="cls-2" d="M1357.07,877.72c9.69-15.16,21.38-26.65,36-35,32.3-18.46,65.89-19.36,99.43-4.65,30.65,13.44,58.78,31.47,84.9,52.48,10.12,8.14,17.36,18.27,20.1,31.23a43.58,43.58,0,0,1,.72,4.45c.11,1.07,0,2.17,0,3.74a132.11,132.11,0,0,1-40.61-7.34c-22-7.44-41.62-19.36-60.74-32.22-13.19-8.87-26.62-17.1-42.45-20.58-11-2.42-21.92-2.17-32.34,1.67C1401.31,879.19,1379.83,877.92,1357.07,877.72Z" transform="translate(-1054.61 -827.87)"/><path class="cls-2" d="M1598.29,935.71c-.73,13.56-5.74,25-15.4,33.68A237.68,237.68,0,0,1,1554,992c-21.89,14.32-43.6,29.19-68.45,38.19-46.3,16.76-95.85,2.57-123.69-35.14-1.53-2.07-2.9-4.25-5.11-7.5,20.09.67,39.33-2.56,57.54,4.31,26.32,9.92,49.72,3.86,72.55-10.25,18.88-11.67,37.95-23.12,57.54-33.53,14.39-7.65,30.42-10.93,46.71-12.34C1593.3,935.55,1595.52,935.71,1598.29,935.71Z" transform="translate(-1054.61 -827.87)"/><path class="cls-2" d="M1649.24,979.59l10.58-44.16H1857c-1,1.33-1.79,2.47-2.71,3.44-24.19,25.3-53.93,39.45-88.74,40.46C1726.53,980.46,1687.49,979.59,1649.24,979.59Z" transform="translate(-1054.61 -827.87)"/><path class="cls-2" d="M1091.88,1172.12V1069.87h38.33a42.91,42.91,0,0,1,19.23,4.76q19.16,9.58,19.16,33.57t-19.16,33.57a42.88,42.88,0,0,1-19.23,4.76h-12.73v25.6Zm38.33-51.13a14.28,14.28,0,0,0,6.43-1.61q6.37-3.22,6.37-11.19a12.79,12.79,0,0,0-2-7.37,10.71,10.71,0,0,0-4.36-3.82,14.27,14.27,0,0,0-6.43-1.61h-12.73V1121Z" transform="translate(-1054.61 -827.87)"/><path class="cls-2" d="M1241,1069.87l-25.6,57.9v44.36h-25.53v-44.36l-25.6-57.9h25.6l12.73,32.3,12.8-32.3Z" transform="translate(-1054.61 -827.87)"/><path class="cls-2" d="M1286.94,1131.79a83.26,83.26,0,0,0-9.18-1.07l-2.55-.2-2.68-.2q-3-.27-5.36-.54-13.2-1.54-19.77-6.63-9-6.9-9-21.85a29.34,29.34,0,0,1,7.57-20.17q7.3-8.11,19.57-11.26a59.44,59.44,0,0,1,26.8-.34,78.8,78.8,0,0,1,29.15,12.6l-12.8,19.17a124.36,124.36,0,0,0-22.31-7.17q-22.38-4.76-22.38,7.17,0,6.17,9,7.71a82.89,82.89,0,0,0,9.18.87l2.61.13,2.61.13q3,.2,5.36.47,13.13,1.34,19.77,6.57,9,7,9,22.51a28.61,28.61,0,0,1-7.57,20q-7.24,7.84-19.57,10.86a61.41,61.41,0,0,1-26.8.27,82.5,82.5,0,0,1-29.15-11.93l12.8-19.17a123.71,123.71,0,0,0,22.38,7.17q22.38,4.82,22.38-7.17Q1296,1133.53,1286.94,1131.79Z" transform="translate(-1054.61 -827.87)"/><path class="cls-2" d="M1356.43,1069.87v76.66h32v25.6h-57.56V1069.87Z" transform="translate(-1054.61 -827.87)"/><path class="cls-2" d="M1459.56,1069.87l38.33,102.26h-32l-2.08-6.37h-34.11l-2.14,6.37h-32L1434,1069.87Zm-23.45,76.66h21.31l-10.65-32Z" transform="translate(-1054.61 -827.87)"/><path class="cls-2" d="M1582.86,1152.42a51.21,51.21,0,0,1-40.34,19.7,51.13,51.13,0,0,1,0-102.26,50.8,50.8,0,0,1,22.78,5.29,51.6,51.6,0,0,1,17.56,14.34l-17.49,20a25.77,25.77,0,0,0-22.85-14.07,25.56,25.56,0,1,0,0,51.13,25.45,25.45,0,0,0,22.85-14.07Z" transform="translate(-1054.61 -827.87)"/><path class="cls-2" d="M1657.1,1069.87,1631.57,1121l32,51.13h-25.6l-25.53-40.94v40.94h-25.6V1069.87h25.6v40.88l19.17-40.88Z" transform="translate(-1054.61 -827.87)"/><path class="cls-2" d="M1731.69,1069.87v25.53h-38.33v12.8h38.33v25.6h-38.33v12.73h38.33v25.6h-63.93V1069.87Z" transform="translate(-1054.61 -827.87)"/><path class="cls-2" d="M1820.34,1108.2q0,23.45-18.43,33.17l18.43,30.76h-32l-15.35-25.6h-3.82v25.6h-25.6V1069.87h38.33a42.91,42.91,0,0,1,19.23,4.76Q1820.34,1084.21,1820.34,1108.2Zm-51.13,12.8h12.73a14.28,14.28,0,0,0,6.43-1.61,10.72,10.72,0,0,0,4.36-3.82,14.51,14.51,0,0,0,0-14.74,10.71,10.71,0,0,0-4.36-3.82,14.27,14.27,0,0,0-6.43-1.61h-12.73Z" transform="translate(-1054.61 -827.87)"/><path class="cls-2" d="M1873.54,1131.79a83.26,83.26,0,0,0-9.18-1.07l-2.55-.2-2.68-.2q-3-.27-5.36-.54-13.2-1.54-19.77-6.63-9-6.9-9-21.85a29.33,29.33,0,0,1,7.57-20.17q7.3-8.11,19.57-11.26a59.44,59.44,0,0,1,26.8-.34,78.81,78.81,0,0,1,29.15,12.6l-12.8,19.17a124.36,124.36,0,0,0-22.31-7.17q-22.38-4.76-22.38,7.17,0,6.17,9,7.71a82.9,82.9,0,0,0,9.18.87l2.61.13,2.61.13q3,.2,5.36.47,13.13,1.34,19.77,6.57,9,7,9,22.51a28.62,28.62,0,0,1-7.57,20q-7.24,7.84-19.57,10.86a61.42,61.42,0,0,1-26.8.27,82.51,82.51,0,0,1-29.15-11.93l12.8-19.17a123.71,123.71,0,0,0,22.38,7.17q22.38,4.82,22.38-7.17Q1882.59,1133.53,1873.54,1131.79Z" transform="translate(-1054.61 -827.87)"/></svg>