<svg xmlns:dc="http://purl.org/dc/elements/1.1/" xmlns:cc="http://creativecommons.org/ns#" xmlns:rdf="http://www.w3.org/1999/02/22-rdf-syntax-ns#" xmlns:svg="http://www.w3.org/2000/svg" xmlns="http://www.w3.org/2000/svg" xmlns:sodipodi="http://sodipodi.sourceforge.net/DTD/sodipodi-0.dtd" xmlns:inkscape="http://www.inkscape.org/namespaces/inkscape" version="1.1" x="0px" y="0px" viewBox="15 15 70 70"><g transform="translate(0,-952.36218)"><path style="text-indent:0;text-transform:none;direction:ltr;block-progression:tb;baseline-shift:baseline;color:#000000;enable-background:accumulate;" d="m 35.811092,977.37008 c -4.03104,0 -8.06684,1.48095 -11.15625,4.46875 -6.17885,5.97539 -6.17126,15.77022 0,21.74997 l 23.9375,23.1876 a 2.0001998,2.0001998 0 0 0 2.78125,0.031 c 7.98637,-7.7237 15.98234,-15.4636 23.968751,-23.1876 6.17884,-5.97536 6.17878,-15.77433 0,-21.74997 -6.178791,-5.97567 -16.133631,-5.97579 -22.312501,0 l -3,2.90625 -3.0625,-2.9375 c -3.08944,-2.9878 -7.12521,-4.46875 -11.15625,-4.46875 z m 0,3.96875 c 3.02625,0 6.05672,1.13299 8.375,3.375 l 4.4375,4.28125 a 2.0001998,2.0001998 0 0 0 2.78125,0 l 4.40625,-4.25 c 4.63655,-4.48417 12.11351,-4.48407 16.75,0 4.636501,4.48406 4.636441,11.51621 0,16.00002 -7.52058,7.2734 -15.0419,14.5706 -22.5625,21.8437 l -22.5625,-21.875 c -4.6336,-4.48979 -4.63643,-11.5162 0,-15.99997 2.31825,-2.24201 5.34875,-3.375 8.375,-3.375 z" fill="#000000" fill-opacity="1" stroke="none" marker="none" visibility="visible" display="inline" overflow="visible"/></g></svg>