<svg xmlns="http://www.w3.org/2000/svg" data-name="Layer 1" viewBox="0 0 65 65" x="0px" y="0px"><title>star</title><path d="M81.38,46.13a3.21,3.21,0,0,0-1.79-5.48L61.25,38a.2.2,0,0,1-.16-.12L52.88,21.24h0a3.21,3.21,0,0,0-5.76,0L38.91,37.86a.2.2,0,0,1-.16.12L20.41,40.65a3.21,3.21,0,0,0-1.78,5.48L31.9,59.07a.22.22,0,0,1,.06.19L28.83,77.53a3.21,3.21,0,0,0,4.66,3.39L49.9,72.3a.18.18,0,0,1,.2,0l16.41,8.62a3.21,3.21,0,0,0,4.66-3.39L68,59.26a.22.22,0,0,1,.06-.19ZM65.08,59.77,68.22,78a.21.21,0,0,1-.09.21.22.22,0,0,1-.23,0L51.5,69.64a3.23,3.23,0,0,0-3,0L32.1,78.27a.22.22,0,0,1-.23,0,.21.21,0,0,1-.09-.21l3.14-18.27A3.25,3.25,0,0,0,34,56.92L20.72,44a.21.21,0,0,1-.06-.23.2.2,0,0,1,.18-.14L39.18,41a3.21,3.21,0,0,0,2.42-1.76l8.21-16.62a.21.21,0,0,1,.38,0L58.4,39.19A3.21,3.21,0,0,0,60.82,41l18.34,2.67a.2.2,0,0,1,.18.14.21.21,0,0,1-.06.23L66,56.92A3.25,3.25,0,0,0,65.08,59.77Z" transform="translate(-17.65 -19.45)"/></svg>