<?xml version="1.0" encoding="UTF-8" standalone="no"?>
<svg
   xmlns:dc="http://purl.org/dc/elements/1.1/"
   xmlns:cc="http://creativecommons.org/ns#"
   xmlns:rdf="http://www.w3.org/1999/02/22-rdf-syntax-ns#"
   xmlns:svg="http://www.w3.org/2000/svg"
   xmlns="http://www.w3.org/2000/svg"
   viewBox="0 0 1041.5826 134.00471"
   height="37.819111mm"
   width="293.95776mm"
   xml:space="preserve"
   version="1.1"
   id="svg2"><metadata
     id="metadata8"><rdf:RDF><cc:Work
         rdf:about=""><dc:format>image/svg+xml</dc:format><dc:type
           rdf:resource="http://purl.org/dc/dcmitype/StillImage" /><dc:title></dc:title></cc:Work></rdf:RDF></metadata><defs
     id="defs6"><clipPath
       id="clipPath16"
       clipPathUnits="userSpaceOnUse"><path
         id="path18"
         d="m 0,2000 3000,0 L 3000,0 0,0 0,2000 Z" /></clipPath><clipPath
       id="clipPath3416"
       clipPathUnits="userSpaceOnUse"><rect
         transform="scale(1,-1)"
         y="-940.74542"
         x="1082.0383"
         height="125.59373"
         width="833.26611"
         id="rect3418"
         style="fill:#0000ff;fill-rule:evenodd;stroke:#000000;stroke-width:0.80000001px;stroke-linecap:butt;stroke-linejoin:miter;stroke-opacity:1" /></clipPath></defs><g
     transform="matrix(1.25,0,0,-1.25,-1346.5937,2085.8069)"
     id="g10"><g
       transform="translate(-5.6936702,734.49962)"
       clip-path="url(#clipPath3416)"
       id="g12"><g
         clip-path="url(#clipPath16)"
         id="g14"><g
           transform="translate(1490.391,1105.9706)"
           id="g20"><path
             id="path22"
             style="fill:#ffff00;fill-opacity:1;fill-rule:nonzero;stroke:none"
             d="m 0,0 c -27.369,-17.429 -54.331,-32.29 -86.117,-35.339 -3.75,-0.36 -7.517,-0.766 -11.277,-0.765 -77.518,0.009 -155.037,-0.122 -232.553,0.239 -25.696,0.119 -50.683,4.339 -73.324,17.761 -11.795,6.992 -26.331,18.925 -32.51,27.359 2.687,0 4.828,0 6.968,0 108.261,0.013 216.523,-0.124 324.784,0.266 11.126,0.041 22.72,1.794 33.257,5.288 18.7,6.201 35.991,4.241 52.985,-4.55 C -11.97,7.25 -6.421,3.724 0,0" /></g><g
           transform="translate(1489.9558,1028.7048)"
           id="g24"><path
             id="path26"
             style="fill:#ffff00;fill-opacity:1;fill-rule:nonzero;stroke:none"
             d="m 0,0 c -13.131,-9.022 -26.293,-16.673 -41.628,-18.147 -8.028,-0.772 -16.703,0.138 -24.438,2.454 -14.078,4.213 -28.175,6.369 -42.832,6.321 -42.06,-0.139 -84.124,-0.147 -126.183,0.183 -20.201,0.158 -40.298,1.8 -59.606,8.607 -20.724,7.307 -37.75,19.952 -53.626,36.752 3.17,0 5.147,0 7.124,0 79.22,0.004 158.44,-0.231 237.659,0.116 C -64.808,36.456 -31.884,21.135 0,0" /></g><g
           transform="translate(1507.249,969.9375)"
           id="g28"><path
             id="path30"
             style="fill:#ffff00;fill-opacity:1;fill-rule:nonzero;stroke:none"
             d="m 0,0 c 21.535,13.952 43.457,27.865 65.024,42.31 6.201,4.153 11.838,9.407 16.94,14.893 22.686,24.392 22.097,58.039 -1.288,81.802 -14.411,14.645 -31.869,25.246 -49.153,35.989 -10.66,6.626 -21.649,12.723 -32.588,19.115 36.915,15.342 87.694,9.106 120.512,-29.715 31.157,-36.857 32.787,-90.578 3.736,-129.286 C 92.597,-5.647 41.311,-16.229 0,0" /></g><g
           transform="translate(1945.3899,1114.9609)"
           id="g32"><path
             id="path34"
             style="fill:#0071bc;fill-opacity:1;fill-rule:nonzero;stroke:none"
             d="m 0,0 c -24.432,-26.893 -53.764,-41.688 -88.898,-43.705 -22.578,-1.296 -45.242,-1.336 -67.87,-1.449 -41.51,-0.207 -83.021,-0.052 -124.532,-0.048 -1.683,10e-4 -3.365,10e-4 -4.229,10e-4 -3.665,15.351 -7.216,30.221 -10.793,45.201 L 0,0 Z" /></g><g
           transform="translate(1357.0663,1122.2758)"
           id="g36"><path
             id="path38"
             style="fill:#0071bc;fill-opacity:1;fill-rule:nonzero;stroke:none"
             d="m 0,0 c 9.691,15.157 21.381,26.649 35.998,35.001 32.301,18.456 65.892,19.361 99.429,4.654 30.654,-13.442 58.782,-31.469 84.897,-52.48 10.118,-8.14 17.361,-18.274 20.099,-31.229 0.31,-1.47 0.561,-2.959 0.718,-4.453 0.112,-1.073 0.022,-2.168 0.022,-3.744 -14.193,0.228 -27.56,2.924 -40.608,7.338 -21.987,7.437 -41.625,19.357 -60.737,32.218 C 126.631,-3.821 113.195,4.402 97.371,7.885 86.384,10.303 75.451,10.059 65.032,6.212 44.242,-1.464 22.762,-0.194 0,0" /></g><g
           transform="translate(1598.2946,1064.2885)"
           id="g40"><path
             id="path42"
             style="fill:#0071bc;fill-opacity:1;fill-rule:nonzero;stroke:none"
             d="m 0,0 c -0.727,-13.558 -5.745,-24.964 -15.404,-33.682 -9.059,-8.176 -18.672,-15.936 -28.873,-22.608 -21.895,-14.32 -43.605,-29.194 -68.454,-38.191 -46.301,-16.764 -95.847,-2.573 -123.686,35.139 -1.527,2.068 -2.904,4.247 -5.115,7.499 20.085,-0.667 39.329,2.556 57.542,-4.308 26.315,-9.918 49.721,-3.862 72.547,10.255 18.877,11.674 37.948,23.117 57.536,33.531 14.394,7.652 30.424,10.934 46.709,12.339 C -4.999,0.164 -2.77,0 0,0" /></g><g
           transform="translate(1649.2369,1020.4118)"
           id="g44"><path
             id="path46"
             style="fill:#0071bc;fill-opacity:1;fill-rule:nonzero;stroke:none"
             d="m 0,0 c 3.38,14.106 6.907,28.824 10.583,44.16 l 197.144,0 c -1.043,-1.334 -1.786,-2.474 -2.711,-3.44 C 180.823,15.425 151.085,1.275 116.277,0.261 77.296,-0.875 38.256,0 0,0" /></g><g
           transform="translate(1130.2069,879.0036)"
           id="g48"><path
             id="path50"
             style="fill:#0071bc;fill-opacity:1;fill-rule:nonzero;stroke:none"
             d="m 0,0 c 2.144,0 4.289,0.536 6.433,1.608 4.244,2.145 6.366,5.874 6.366,11.191 0,2.948 -0.67,5.404 -2.011,7.37 C 9.76,21.778 8.309,23.052 6.433,23.989 4.289,25.062 2.144,25.598 0,25.598 l -12.732,0 L -12.732,0 0,0 Z m -38.33,-51.129 0,102.258 38.33,0 c 6.433,0 12.843,-1.587 19.232,-4.758 12.775,-6.39 19.164,-17.58 19.164,-33.572 0,-15.993 -6.389,-27.185 -19.164,-33.572 C 12.843,-23.946 6.433,-25.531 0,-25.531 l -12.732,0 0,-25.598 -25.598,0 z" /></g><g
           transform="translate(1241.041,930.1321)"
           id="g52"><path
             id="path54"
             style="fill:#0071bc;fill-opacity:1;fill-rule:nonzero;stroke:none"
             d="m 0,0 -25.597,-57.896 0,-44.361 -25.532,0 0,44.361 L -76.726,0 -51.129,0 -38.396,-32.299 -25.597,0 0,0 Z" /></g><g
           transform="translate(1286.9426,868.2147)"
           id="g56"><path
             id="path58"
             style="fill:#0071bc;fill-opacity:1;fill-rule:nonzero;stroke:none"
             d="m 0,0 c -2.01,0.402 -5.071,0.76 -9.18,1.073 l -2.547,0.201 -2.68,0.201 c -2.01,0.178 -3.798,0.356 -5.36,0.535 -8.802,1.027 -15.391,3.239 -19.768,6.634 -5.987,4.601 -8.98,11.883 -8.98,21.845 0,7.774 2.523,14.497 7.572,20.171 4.869,5.404 11.392,9.157 19.567,11.257 8.353,2.144 17.288,2.256 26.804,0.335 C 15.613,60.197 25.33,55.998 34.577,49.655 L 21.778,30.489 c -7.461,3.172 -14.899,5.563 -22.314,7.171 -14.921,3.172 -22.381,0.781 -22.381,-7.171 0,-4.11 2.992,-6.679 8.979,-7.706 2.01,-0.357 5.07,-0.648 9.18,-0.87 l 2.614,-0.135 2.613,-0.134 c 2.01,-0.134 3.797,-0.291 5.361,-0.469 8.755,-0.894 15.345,-3.082 19.768,-6.567 5.986,-4.69 8.979,-12.195 8.979,-22.514 0,-7.774 -2.524,-14.431 -7.572,-19.97 -4.825,-5.226 -11.347,-8.845 -19.567,-10.855 -8.309,-2.054 -17.244,-2.145 -26.803,-0.269 -10.142,1.966 -19.859,5.941 -29.15,11.928 l 12.799,19.166 c 7.46,-3.174 14.92,-5.563 22.381,-7.171 14.92,-3.216 22.381,-0.827 22.381,7.171 C 9.046,-3.797 6.031,-1.162 0,0" /></g><g
           transform="translate(1356.4315,930.1321)"
           id="g60"><path
             id="path62"
             style="fill:#0071bc;fill-opacity:1;fill-rule:nonzero;stroke:none"
             d="m 0,0 0,-76.659 31.963,0 0,-25.598 -57.56,0 L -25.597,0 0,0 Z" /></g><g
           transform="translate(1436.1057,853.4731)"
           id="g64"><path
             id="path66"
             style="fill:#0071bc;fill-opacity:1;fill-rule:nonzero;stroke:none"
             d="M 0,0 21.309,0 10.655,31.963 0,0 Z m 23.453,76.659 38.331,-102.257 -31.965,0 -2.077,6.366 -34.107,0 -2.145,-6.366 -31.963,0 38.329,102.257 25.597,0 z" /></g><g
           transform="translate(1582.8573,847.5756)"
           id="g68"><path
             id="path70"
             style="fill:#0071bc;fill-opacity:1;fill-rule:nonzero;stroke:none"
             d="m 0,0 c -4.781,-6.121 -10.633,-10.901 -17.557,-14.339 -7.148,-3.575 -14.742,-5.362 -22.783,-5.362 -14.117,0 -26.157,5.004 -36.118,15.011 -10.008,9.961 -15.01,22.001 -15.01,36.118 0,14.116 5.002,26.177 15.01,36.185 9.961,9.962 22.001,14.944 36.118,14.944 8.041,0 15.635,-1.766 22.783,-5.294 C -10.633,73.778 -4.781,68.997 0,62.922 L -17.49,42.953 c -2.144,4.244 -5.227,7.617 -9.247,10.119 -4.155,2.635 -8.689,3.954 -13.603,3.954 -7.059,0 -13.09,-2.503 -18.092,-7.505 -4.959,-5.004 -7.439,-11.036 -7.439,-18.093 0,-7.06 2.48,-13.09 7.439,-18.093 5.002,-4.959 11.033,-7.437 18.092,-7.437 4.914,0 9.448,1.294 13.603,3.886 4.02,2.546 7.103,5.94 9.247,10.185 L 0,0 Z" /></g><g
           transform="translate(1657.1039,930.1321)"
           id="g72"><path
             id="path74"
             style="fill:#0071bc;fill-opacity:1;fill-rule:nonzero;stroke:none"
             d="m 0,0 -25.531,-51.129 31.964,-51.128 -25.597,0 -25.532,40.943 0,-40.943 -25.597,0 0,102.257 25.597,0 0,-40.876 L -25.531,0 0,0 Z" /></g><g
           transform="translate(1731.6854,930.1321)"
           id="g76"><path
             id="path78"
             style="fill:#0071bc;fill-opacity:1;fill-rule:nonzero;stroke:none"
             d="m 0,0 0,-25.531 -38.33,0 0,-12.799 38.33,0 0,-25.598 -38.33,0 0,-12.731 38.33,0 0,-25.598 -63.927,0 L -63.927,0 0,0 Z" /></g><g
           transform="translate(1769.21,879.0036)"
           id="g80"><path
             id="path82"
             style="fill:#0071bc;fill-opacity:1;fill-rule:nonzero;stroke:none"
             d="m 0,0 12.733,0 c 2.144,0 4.288,0.536 6.432,1.608 1.877,0.938 3.327,2.211 4.356,3.82 1.341,1.964 2.011,4.422 2.011,7.371 0,2.948 -0.67,5.404 -2.011,7.37 -1.029,1.609 -2.479,2.883 -4.356,3.82 -2.144,1.073 -4.288,1.609 -6.432,1.609 L 0,25.598 0,0 Z m 51.129,12.799 c 0,-15.636 -6.143,-26.694 -18.427,-33.171 l 18.427,-30.757 -31.964,0 -15.345,25.598 -3.82,0 0,-25.598 -25.597,0 0,102.258 38.33,0 c 6.432,0 12.842,-1.587 19.231,-4.758 12.776,-6.39 19.165,-17.58 19.165,-33.572" /></g><g
           transform="translate(1873.5446,868.2147)"
           id="g84"><path
             id="path86"
             style="fill:#0071bc;fill-opacity:1;fill-rule:nonzero;stroke:none"
             d="m 0,0 c -2.01,0.402 -5.071,0.76 -9.18,1.073 l -2.547,0.201 -2.68,0.201 c -2.01,0.178 -3.797,0.356 -5.36,0.535 -8.802,1.027 -15.39,3.239 -19.768,6.634 -5.987,4.601 -8.98,11.883 -8.98,21.845 0,7.774 2.523,14.497 7.573,20.171 4.868,5.404 11.391,9.157 19.567,11.257 8.353,2.144 17.289,2.256 26.804,0.335 C 15.614,60.197 25.33,55.998 34.578,49.655 L 21.779,30.489 c -7.461,3.172 -14.9,5.563 -22.314,7.171 -14.922,3.172 -22.382,0.781 -22.382,-7.171 0,-4.11 2.992,-6.679 8.979,-7.706 2.01,-0.357 5.071,-0.648 9.182,-0.87 l 2.613,-0.135 2.612,-0.134 c 2.012,-0.134 3.797,-0.291 5.362,-0.469 8.755,-0.894 15.344,-3.082 19.767,-6.567 5.986,-4.69 8.98,-12.195 8.98,-22.514 0,-7.774 -2.525,-14.431 -7.571,-19.97 -4.825,-5.226 -11.349,-8.845 -19.568,-10.855 -8.31,-2.054 -17.245,-2.145 -26.804,-0.269 -10.141,1.966 -19.858,5.941 -29.15,11.928 l 12.799,19.166 c 7.46,-3.174 14.921,-5.563 22.382,-7.171 14.919,-3.216 22.38,-0.827 22.38,7.171 C 9.046,-3.797 6.032,-1.162 0,0" /></g></g></g></g></svg>